<svg width="1080" height="1080" viewBox="0 0 1080 1080" fill="none" xmlns="http://www.w3.org/2000/svg">
<rect x="82" y="112" width="916" height="917" rx="418" fill="#2C3E50"/>
<path fill-rule="evenodd" clip-rule="evenodd" d="M531.698 446.227C563.175 443.999 606.322 450.277 615.395 486.186C618.208 499.253 623.765 504.992 633.104 513.544C692.362 589.551 485.377 602.143 474.799 528.067C452.377 536.215 427.976 537.924 405.54 546.159C393.372 550.644 382.335 557.728 371.759 565.136C328.631 595.725 286.111 627.19 243.136 657.999C259.75 665.669 291.324 694.928 278.432 714.561C275.429 718.385 270.975 721.019 267.034 723.812L264.956 725.294C260.485 728.493 252.959 733.946 248.798 736.91L248.03 737.468C247.729 737.685 247.39 737.929 247.083 738.148C277.039 782.041 312.107 822.547 351.012 858.718C354.325 861.804 352.961 868.697 348.162 869.495L342.445 870.33C323.984 873.004 305.173 875.408 286.574 873.932C268.459 871.946 257.556 855.894 245.182 844.263C220.473 818.954 197.474 791.961 176.53 763.447L176.093 762.846C169.575 753.919 160.92 744.793 160.296 733.273C159.143 729.808 162.19 724.848 165.115 722.489L166.115 721.049C181.814 698.501 199.58 676.759 221.828 660.44C221.747 658.005 222.874 655.447 225.103 653.836L318.082 586.642V586.642C342.072 570.156 364.372 550.777 390.371 537.47C416.955 524.693 446.943 524.215 474.184 513.556C474.768 505.858 490.949 503.906 490.437 505.095C507.518 494.801 516.317 482.543 519.037 471.273C521.757 460.002 518.397 449.72 531.698 446.227ZM761.284 687.943C790.053 644.716 817.401 692.592 829.338 721.443C843.438 760.924 814.129 809.451 795.193 843.461C788.221 852.904 779.045 872.827 766.769 874.262C735.843 874.109 704.877 871.905 673.933 871.23C653.956 866.254 682.015 836.239 701.371 847.227C707.236 849.428 710.162 856.095 715.881 858.237C717.965 858.684 718.11 857.754 718.959 855.678L719.08 855.388C720.595 851.796 722.063 848.185 723.555 844.583C736.18 813.557 749.525 782.804 762.794 752.065C765.628 745.391 761.665 739.887 756.511 735.909C752.564 732.654 735.593 724.7 751.586 728.208C745.438 713.9 752.852 699.389 761.284 687.943ZM689.998 628.677C692.765 628.334 696.315 631.126 696.739 633.828C700.249 656.228 696.298 678.367 691.567 700.272L690.696 704.283C688.95 712.272 687.001 720.418 682.659 727.418C678.228 734.562 671.53 739.944 663.843 743.212C639.183 753.019 608.533 743.274 590.413 724.885C578.825 708.978 589.041 689.016 591.003 671.594C589.166 666.897 588.493 661.466 587.432 656.625L587.303 656.047L583.184 637.985C582.275 634.001 585.181 628.553 589.949 629.105C623.189 632.947 656.791 632.804 689.998 628.677Z" fill="#FFDBB4"/>
<rect x="581.312" y="629.538" width="116.734" height="117.366" transform="rotate(0.0483135 581.312 629.538)" fill="#58A6EF"/>
<path fill-rule="evenodd" clip-rule="evenodd" d="M806.052 682.322C805.953 681.876 806.487 681.536 806.833 681.871C812.677 687.515 816.8 694.725 821.329 701.407C825.641 707.772 830.334 713.89 833.549 720.912C836.535 727.44 838.459 734.061 839.028 741.232C839.597 748.351 838.846 755.487 837.585 762.498C835.104 776.31 829.813 789.386 824.007 802.086C818.362 814.432 811.985 826.427 805.251 838.202L802.838 842.406C799.894 847.525 796.918 852.634 793.733 857.592C789.768 863.762 786.149 870.132 780.924 875.28C777.213 878.945 770.23 875.271 771.924 870.032C772.659 867.75 773.236 865.602 774.376 863.485C775.239 861.872 776.214 860.306 777.131 858.717C778.964 855.538 780.779 852.347 782.612 849.168C786.46 842.487 790.513 835.93 794.325 829.225C800.94 817.6 807.186 805.757 812.71 793.568L813.36 792.129C818.444 780.841 823.261 769.149 825.5 756.936C827.857 744.069 825.767 731.938 821.208 719.839C818.849 713.581 816.197 707.464 813.439 701.371L812.909 700.207C810.246 694.391 807.422 688.606 806.052 682.322ZM522.237 459.486C522.29 459.257 522.678 459.24 522.713 459.486C524.346 470.415 520.682 481.972 514.72 491.057C511.466 496.019 507.456 500.499 502.731 504.098L502.363 504.376C497.536 507.979 491.015 511.458 485.029 509.113C484.841 509.041 484.665 508.96 484.501 508.866C485.175 509.911 485.795 511.009 486.428 512.107C488.308 515.377 489.995 518.764 491.828 522.064C495.108 527.964 499.016 533.243 503.957 537.866C523.716 556.346 551.478 560.758 577.553 560.569L579.395 560.554C590.849 560.483 605.828 561.08 614.678 552.795C619.433 548.345 622.054 542.014 624.423 536.072C626.751 530.246 628.346 524.233 630.281 518.307C626.253 515.541 622.56 512.163 619.66 508.217C616.637 504.106 614.353 499.48 613.037 494.544L612.843 493.806C611.826 489.87 610.804 484.663 612.45 480.946C612.638 480.518 613.342 480.548 613.541 480.947C614.426 482.726 614.594 484.733 615.138 486.635C615.77 488.848 616.483 491.049 617.426 493.145C619.247 497.207 621.655 501.071 624.544 504.453C626.929 507.254 629.514 509.827 632.468 511.989C634.213 508.98 638.255 508.579 641.639 509.573C646.175 510.903 650.648 512.609 655.022 514.411L655.895 514.773C660.217 516.572 665.102 518.225 669.147 520.676C671.604 521.851 673.961 523.033 676.177 524.079C687.222 529.281 698.102 534.799 708.933 540.425L711.253 541.632C715.791 544 720.289 546.393 724.234 549.694C728.249 553.054 731.366 557.646 734.295 561.95C740.992 571.791 747.301 581.913 753.921 591.807C767.291 611.77 780.66 631.734 794.106 651.65C797.357 656.471 801.025 661.174 803.942 666.2C806.737 671.003 806.656 675.932 806.106 681.289L806.003 682.273C804.949 692.1 803.142 701.538 797.623 709.961C788.936 723.204 775.261 731.443 760.797 737.111C762.561 738.427 764.22 739.849 766.325 740.755C769.562 742.142 773.017 742.862 776.519 743.152C780.255 743.455 784.467 742.524 787.492 745.068C788.706 746.084 788.739 748.525 787.488 749.54C784.576 751.913 780.816 751.229 777.27 750.828L777.058 750.804C773.767 750.438 770.524 749.825 767.433 748.613C766.671 748.313 765.915 747.978 765.182 747.608C765.205 747.672 765.217 747.749 765.205 747.831C764.673 751.873 763.525 755.695 762.313 759.558L761.544 762.005C759.98 767.004 758.403 771.991 756.78 776.977C753.691 786.471 750.327 795.874 746.952 805.265L744.038 813.369C741.045 821.682 738.015 829.985 734.667 838.159C732.597 843.204 730.517 848.249 728.442 853.288C726.414 858.21 724.726 863.525 722.211 868.212C720.143 872.072 714.514 869.302 715.421 865.337C716.61 860.133 718.849 854.97 720.561 849.907C722.301 844.768 724.007 839.623 725.777 834.495C728.855 825.588 732.263 816.799 735.689 808.019L739.085 799.315C742.415 790.787 745.785 782.267 749.386 773.85L749.779 772.927C753.521 764.123 757.383 754.222 764.173 747.402C764.261 747.308 764.384 747.261 764.507 747.249C762.842 746.344 761.283 745.245 759.911 743.947L759.844 743.88C759.302 743.305 757.063 740.471 756.343 738.774C755.404 739.108 754.466 739.43 753.527 739.746C751.89 740.296 750.535 739.896 749.579 739.021L747.757 740.147C745.809 741.335 743.714 742.462 741.564 742.518C738.853 742.586 736.725 741.088 735.278 738.88C733.978 736.907 733.205 734.776 731.558 733.008C729.939 731.271 728.064 729.804 726.149 728.403L723.89 726.757C719.749 723.727 715.735 720.666 712.402 716.667C710.726 714.647 708.481 712.25 707.463 709.825C707.264 709.357 707.141 708.917 707.118 708.488C706.894 710.001 706.663 711.521 706.433 713.035C703.213 734.34 700.608 755.792 699.762 777.34C699.349 787.967 699.158 798.606 699.624 809.239C699.854 814.551 700.237 819.856 700.766 825.15C701.028 827.803 701.301 830.45 701.622 833.091L701.696 833.702C701.788 834.512 701.849 835.294 701.778 836.037C704.358 837.312 705.839 840.529 706.869 843.042C707.654 844.955 707.042 846.815 705.774 848.158C707.286 849.538 708.634 851.159 709.765 853.014C709.993 853.39 709.5 853.683 709.207 853.448C707.349 851.968 705.349 850.751 703.262 849.817C702.165 850.232 700.968 850.343 699.865 850.037C698.669 849.707 697.637 848.908 696.893 847.893C690.963 846.913 684.797 848.099 679.456 851.809C678.347 852.583 677.343 853.457 676.386 854.406C676.221 854.571 676.051 854.782 675.881 854.987L677.045 855.436C677.527 855.619 677.923 855.762 678.074 855.793C679.091 856.001 680.123 856.113 681.155 856.203L682.702 856.331C688.644 856.829 694.568 856.998 700.092 859.491C701.253 860.014 700.847 861.803 699.749 862.101C695.714 863.193 691.709 863.105 687.602 862.809L686.721 862.742C682.902 862.446 678.802 862.46 675.078 861.4C675.967 863.842 674.75 867.028 671.025 867.523C659.837 869.005 648.581 868.291 637.384 867.296C626.075 866.288 614.772 865.334 603.433 864.732C566.757 862.771 530.022 863.111 493.311 863.604L472.565 863.887C456.021 864.106 439.474 864.274 422.93 864.133L415.186 864.055C411.913 864.02 408.639 863.977 405.37 863.878L403.409 863.812C399.514 863.668 394.357 864.25 390.975 861.941C388.184 860.038 387.565 856.551 389.251 853.742C389.739 852.932 390.408 852.211 391.107 851.507C392.548 839.274 393.362 826.98 394.194 814.692C397.081 771.692 395.451 728.911 388.911 686.336C371.262 691.715 353.881 698.466 336.946 705.711C327.785 709.629 318.672 713.694 309.664 717.958C301.443 721.854 293.185 726.723 284.402 729.251C283.603 729.959 282.486 730.295 281.497 729.98L281.368 729.935L281.362 729.935C280.459 730.146 279.456 730.016 278.471 729.422C278.271 729.301 278.072 729.18 277.873 729.055L277.574 728.864C274.484 726.913 271.377 724.51 269.192 721.574C266.532 724.037 263.674 726.294 260.862 728.58C257.809 731.066 254.769 733.563 251.751 736.084C250.554 737.086 249.233 738.042 248.176 739.197L248.023 739.366C247.998 739.394 247.975 739.421 247.953 739.449C252.52 742.41 256.517 746.903 260.098 750.808C263.943 755 267.655 759.325 271.337 763.666L274.901 767.878C300.103 797.7 325.563 828.604 358.205 850.535C363.364 854.002 358.436 862.43 353.312 858.887C343.615 852.195 334.441 844.764 325.631 836.945C310.191 823.254 296.302 807.896 283.299 791.894C276.718 783.796 270.331 775.5 264.073 767.149L261.949 764.317C259.119 760.539 256.304 756.75 253.609 752.874L253.045 752.062C250.681 748.644 248.167 744.803 246.644 740.868C246.057 741.46 245.394 741.958 244.425 742.333C242.771 742.977 240.742 741.62 240.339 740.006C239.357 736.091 242.761 733.764 245.531 731.688C248.895 729.18 252.322 726.759 255.756 724.35L256.983 723.485C261.276 720.444 265.593 717.322 270.271 714.921C270.412 714.733 270.582 714.557 270.776 714.405C270.999 714.229 271.216 714.059 271.439 713.889C265.862 704.823 259.745 696.11 252.918 687.876C247.785 681.682 242.335 675.767 236.567 670.164L233.976 667.65C230.057 663.857 225.982 660.01 221.632 656.713L220.268 658.257C218.446 660.315 216.607 662.356 214.663 664.289C210.835 668.088 207.06 671.965 203.302 675.84C197.062 682.288 191.033 688.935 185.023 695.591L182.018 698.919C175.759 705.856 169.055 712.664 163.364 720.076L163.08 720.451C160.596 723.779 158.826 727.462 159.976 731.693C161.085 735.772 163.727 739.39 166.004 742.913L166.231 743.265C175.528 757.779 185.488 771.924 196.159 785.46C217.529 812.572 241.91 838.272 271.013 857.134C275.047 859.748 271.269 866.236 267.23 863.592C250.234 852.457 234.624 839.088 220.264 824.733C207.083 811.559 195.14 797.055 183.948 782.169C178.493 774.905 173.267 767.489 168.258 759.91C163.401 752.552 157.782 744.984 154.264 736.87C152.42 732.602 151.743 727.983 153.26 723.489C154.651 719.359 157.399 715.931 160.257 712.706L160.526 712.404C167.096 705.034 173.783 697.751 180.53 690.538C187.299 683.303 194.379 676.325 201.606 669.554C207.283 664.224 213.2 659.528 219.527 655.18C218.959 654.774 218.39 654.386 217.809 654.01C216.045 652.859 215.601 650.399 217.151 648.84C221.384 644.571 226.262 640.86 230.852 636.974C235.167 633.322 239.481 629.663 243.796 626.005C252.578 618.572 261.36 611.132 270.142 603.693C285.915 590.332 301.6 576.878 317.321 563.458C323.876 557.864 330.492 552.34 337.091 546.8L348.816 536.946V536.946L354.55 532.138C357.488 529.68 360.489 527.25 363.829 525.377C371.689 520.969 381.135 519.067 389.792 516.735L390.368 516.579C400.079 513.93 409.842 511.438 419.658 509.216C429.485 506.994 439.354 504.972 449.263 503.143C458.169 501.496 467.286 500.084 476.366 499.88C478.62 499.025 481.447 498.728 483.664 499.646C484.579 500.028 485.534 500.586 486.384 501.291C490.826 499.734 495.209 498.992 499.358 496.355C503.502 493.724 507.171 490.265 510.26 486.453C516.643 478.559 519.988 469.232 522.237 459.486ZM624.086 727.044C620.567 726.795 617.398 728.247 614.252 729.793C616.023 730.564 617.794 731.328 619.565 732.086L631.352 737.131V737.131C635.245 738.795 639.368 740.243 643.068 742.293C643.331 742.44 643.542 742.617 643.701 742.822C647.551 740.362 651.624 738.164 655.526 735.826C656.419 735.292 657.317 734.759 658.214 734.226C653.567 735.777 648.803 736.553 643.76 735.088C637.033 733.14 631.195 727.548 624.086 727.044ZM633.74 715.245L633.108 714.814C629.696 712.469 625.625 709.454 621.477 711.555C619.523 712.545 617.92 714.146 615.995 715.212C614.059 716.29 611.929 717.116 609.769 717.613C606.185 718.437 602.078 718.557 598.225 717.755L598.279 722.967V722.967C601.194 724.172 604.09 725.408 606.987 726.654C608.869 726.012 610.68 725.24 612.585 724.394L613.87 723.819C617.538 722.173 621.24 721.074 625.293 721.599C632.924 722.585 638.686 728.265 645.981 730.16C654.925 732.492 663.002 725.821 671.457 724.179C672.851 723.905 674.287 723.746 675.715 723.722L676.191 723.719L676.402 723.596C678.222 722.53 680.944 721.511 682.213 719.716C683.593 717.769 683.713 714.506 684.167 712.218C684.214 711.989 684.261 711.755 684.302 711.526C683.504 711.525 682.695 711.565 681.873 711.717C679.292 712.19 676.863 713.104 674.457 714.124C669.909 716.05 665.461 718.247 660.673 719.528C655.985 720.785 651.086 721.38 646.259 720.678C641.549 719.992 637.639 717.865 633.74 715.245ZM634.49 696.924L633.783 696.468C631.92 695.276 629.783 694.042 627.498 694.477C625.457 694.869 623.701 696.493 621.923 697.495C618.02 699.692 613.643 700.891 609.179 701.193C605.466 701.442 601.612 700.987 598.041 699.881L598.154 711.418V711.418C599.462 711.836 600.817 712.136 602.242 712.243C606.571 712.569 610.795 711.534 614.428 709.149L616.266 707.93C619.411 705.867 622.362 704.23 626.522 704.987C630.639 705.741 634.092 708.385 637.457 710.688L638.009 711.059C641.873 713.616 645.792 715.268 650.534 715.312C655.655 715.356 660.719 713.935 665.489 712.185C670.225 710.452 674.726 708.372 679.789 707.737C681.337 707.545 683.226 707.487 685.003 707.794C685.239 706.486 685.463 705.184 685.675 703.875C686.135 701.064 686.531 698.259 686.873 695.449C677.894 693.023 669.593 700.839 661.25 703.244C656.409 704.636 651.142 704.615 646.303 703.26C641.826 702.007 638.308 699.409 634.49 696.924ZM634.528 677.495C632.611 677.123 630.715 678.008 629.084 678.916C624.923 681.219 621.33 684.426 616.619 685.636C610.558 687.192 603.93 685.843 597.914 683.285C597.934 686.847 597.961 690.409 597.987 693.971C599.119 694.401 600.28 694.748 601.465 695.025C605.676 695.991 610.14 695.865 614.288 694.654C618.518 693.419 621.765 690.077 626.007 689.036C630.345 687.968 634.431 690.056 637.924 692.429L638.975 693.148C642.968 695.864 646.841 698.224 651.839 698.688C657.124 699.179 661.718 697.528 666.442 695.338L667.542 694.83C673.523 692.088 681.286 688.967 687.252 692.098C687.725 687.662 688.069 683.227 688.301 678.784C687.48 678.478 686.63 678.254 685.65 678.248C683.31 678.235 680.851 678.971 678.668 679.738C673.898 681.418 669.455 683.926 664.731 685.724C660.254 687.434 655.297 688.321 650.522 687.549C646.1 686.835 642.782 684.52 639.728 681.349L639.285 680.88C637.946 679.452 636.513 677.882 634.528 677.495ZM638.044 661.025C635.834 659.856 633.142 658.768 630.584 659.106C628.144 659.426 626.516 661.081 625.012 662.849L624.197 663.818C621.507 666.997 618.858 669.67 614.713 670.976C610.418 672.322 605.866 671.79 601.873 669.809C600.454 669.103 599.135 668.228 597.81 667.364L597.872 676.724V676.724C600.523 678.046 603.22 679.24 606.182 679.965C611.648 681.301 616.294 680.319 620.972 677.307L621.463 676.988C624.987 674.677 628.6 671.926 632.95 671.672C637.195 671.421 640.378 673.778 643.171 676.662L643.498 677.003C647.02 680.726 650.579 682.543 655.824 682.119C660.909 681.708 665.669 679.466 670.328 677.535L670.751 677.361C675.011 675.615 679.923 673.818 684.597 674.491C685.718 674.651 687.166 674.998 688.456 675.603C688.648 671.225 688.739 666.842 688.761 662.453C686.105 660.145 681.97 659.759 678.643 660.701C673.433 662.176 669.165 665.987 664.189 668.054C659.776 669.887 655.177 670.294 650.679 668.553C646.035 666.754 642.395 663.329 638.044 661.025ZM688.484 642.63C680.7 642.893 673.081 647.951 665.647 649.875C657.343 652.023 650.57 649.08 643.177 645.812L642.222 645.39C638.428 643.72 634.353 642.22 630.146 642.897C626.045 643.563 622.418 645.831 618.891 647.882L618.215 648.27C611.79 651.922 605.248 654.421 597.751 653.79C597.79 656.144 597.77 658.491 597.774 660.792C599.006 661.497 600.19 662.296 601.316 663.025L601.72 663.281C605.292 665.52 608.976 666.993 613.239 665.617C617.358 664.282 619.297 660.698 622.127 657.749C624.728 655.04 628.12 653.394 631.921 653.556C636.009 653.723 639.873 655.528 643.25 657.732C646.627 659.935 649.892 662.783 653.845 663.891C662.712 666.362 670.317 656.986 678.706 655.532C682.226 654.918 686.109 655.702 688.765 657.828C688.739 652.77 688.632 647.7 688.484 642.63ZM621.484 640.449C620.387 640.489 619.29 640.535 618.193 640.581C614.134 640.754 610.075 640.95 606.015 641.175C603.205 641.325 599.749 642.185 596.993 641.326C596.922 641.608 596.828 641.878 596.705 642.141C597.12 644.219 597.376 646.367 597.532 648.538C600.078 648.816 602.665 648.725 605.176 648.205C611.202 646.96 616.097 643.161 621.484 640.449ZM688.37 638.762C673.546 639.771 658.61 639.407 643.762 639.716L641.981 639.756C641.91 639.756 641.84 639.762 641.77 639.762C643.472 640.424 645.16 641.181 646.843 641.952L648.525 642.725C652.5 644.559 656.547 646.059 660.999 645.74C665.769 645.398 670.264 643.454 674.723 641.884C678.977 640.386 683.876 639.38 688.41 640.042C688.399 639.613 688.387 639.191 688.37 638.762Z" fill="black"/>
<path fill-rule="evenodd" clip-rule="evenodd" d="M671.347 267.373C671.156 260.356 660.978 257.433 658.03 264.381C657.848 264.567 657.649 264.745 657.463 264.905C658.384 264.115 656.458 265.423 656.144 265.584C655.876 265.723 655.602 265.848 655.329 265.976C653.452 248.197 647.045 229.027 630.457 220.09C607.319 208.817 580.573 206.598 555.178 207.695C542.313 208.449 527.455 210.499 516.032 203.965C512.472 201.929 509.62 198.727 505.597 197.467C492.895 194.011 487.122 207.084 488.843 217.84C483.425 217.879 478.047 220.882 475.704 225.831C474.328 228.761 474.35 231.923 473.163 234.863C469.523 242.319 464.32 247.676 467.252 256.721C462.077 262.614 465.017 271.544 469.184 277.193C471.241 280.132 473.692 282.953 475.198 286.241C476.66 289.389 474.446 293.12 473.213 296.102C464.098 317.719 464.598 341.533 469.474 364.093C459.648 368.357 456.689 381.711 463.087 390.126C465.288 393.101 467.976 394.206 471.023 396.038C474.88 398.17 471.722 406.695 472.954 410.815C474.624 420.87 483.751 427.07 492.785 420.548C498.516 419.684 503.123 436.4 507.28 440.598C509.841 443.981 512.684 447.018 515.776 449.822C524.975 473.611 572.207 485.71 595.566 484.353C620.027 481.806 636.546 460.996 650.301 442.526C657.365 432.684 661.962 421.666 663.641 409.646C665.328 397.566 664.605 385.462 663.482 373.365C661.123 347.662 657.398 310.632 654.995 284.652C663.76 283.936 671.605 276.462 671.347 267.373V267.373Z" fill="#FFDBB4"/>
<path fill-rule="evenodd" clip-rule="evenodd" d="M496.674 200.88C498.378 199.198 501.165 200.927 503.009 202.282L503.417 202.586L504.585 203.478C507.234 205.529 509.713 207.757 512.575 209.532C515.699 211.47 519.091 213.011 522.538 214.276C529.22 216.728 536.411 217.832 543.497 218.185C572.493 219.628 606.255 204.383 632.557 222.644C638.791 226.973 643.091 233.298 645.307 240.529C647.805 248.684 646.94 257.127 648.983 265.31C649.869 268.861 655.998 269.359 656.686 265.457L656.731 265.155L657.268 264.818L657.48 264.692C657.698 264.566 657.797 264.53 657.609 264.707L657.567 264.745L657.65 264.672C657.714 264.615 657.778 264.556 657.842 264.496L658.029 264.313C659.338 261.228 662.074 260.089 664.727 260.391L664.652 260.575L663.86 262.615L663.608 263.256C662.677 265.593 661.652 267.806 659.883 269.808C657.379 272.64 654.267 274.948 650.761 276.368C650.04 276.659 650.148 277.639 650.943 277.719C658.771 278.507 667.593 273.746 671.281 266.522C671.317 266.777 671.338 267.038 671.346 267.306C671.371 268.186 671.32 269.051 671.199 269.897C670.763 270.059 670.341 270.299 669.949 270.625C667.405 272.741 666.153 276.202 663.761 278.563C661.253 281.037 658.176 283.331 654.837 284.478C654.784 284.496 654.74 284.523 654.702 284.552C654.451 283.594 654.185 282.642 653.882 281.704C653.763 281.335 653.273 281.427 653.235 281.791C653.168 282.441 643.989 275.884 636.915 276.936C623.616 278.914 620.539 286.695 601.435 285.529C592.111 284.961 572.426 276.187 555.2 275.514C539.572 274.904 511.635 283.822 504.262 288.968C500.429 291.644 511.238 300.498 509.276 304.518C503.708 315.92 505.947 331.012 500.128 340.027L499.903 340.367C496.177 345.846 498.488 360.436 497.035 364.932C494.411 373.049 490.08 369.489 490.734 370.578C490.94 370.922 491.494 370.699 491.386 370.303C489.605 363.788 484.719 358.866 478.504 357.066C478.775 355.523 478.287 353.584 477.331 352.317L476.94 350.484L476.58 348.768C475.751 344.766 475.009 340.767 474.611 336.655C474.015 330.49 473.999 324.279 474.399 318.099C474.924 309.978 476.599 302.155 478.441 294.338L478.639 293.501L480.086 287.423C483.691 288.454 487.39 289.107 490.986 289.432C495.172 289.81 499.317 289.779 503.43 289.45C507.067 299.38 506.918 310.683 502.406 320.373C497.126 331.709 484.201 342.531 487.734 356.286C489.276 362.282 498.322 361.066 498.541 355.013L498.545 354.828C498.584 348.847 500.616 343.923 503.3 338.785L503.67 338.082L504.283 336.937C507.496 330.926 510.216 324.994 511.125 318.154C512.445 308.217 510.399 297.954 505.496 289.261C522.986 287.447 539.917 280.521 556.996 276.807L557.779 276.639L558.566 276.478C571.182 273.938 585.086 273.649 596.516 280.316C596.734 280.443 596.907 280.126 596.71 279.984C580.121 267.968 558.623 269.654 539.586 273.867L538.49 274.113L537.413 274.359C519.805 278.42 501.356 284.392 483.365 279.102C478.688 277.728 474.151 275.472 470.492 272.208L470.186 271.933C468.639 270.531 466.872 268.716 466.576 266.589C466.472 265.84 466.505 265.327 466.946 264.735C467.406 264.118 468.208 264.121 467.747 263.898C473.135 266.507 477.762 259.027 472.702 255.781L472.344 255.559C465.87 251.44 469.114 242.08 476.545 242.13L476.925 242.137C481.133 242.153 482.427 237.171 480.166 234.252L479.949 233.98C475.765 228.568 482.821 222.051 488.304 225.113L488.604 225.286C491.207 226.732 493.946 225.127 494.933 222.579C497.051 217.11 495.974 211.462 495.854 205.8L495.848 205.431L495.839 204.815L495.838 204.329L495.843 204.007C495.871 202.813 496.027 201.519 496.674 200.88ZM654.9 285.331L654.952 285.343L655.065 285.348L655.167 286.45L655.036 285.89L654.9 285.331ZM475.074 285.911L474.948 285.653L475.357 285.818L475.16 286.095L475.074 285.911ZM589.923 254.53C589.487 254.406 589.172 255.085 589.605 255.284C600.368 260.231 608.529 268.118 614.895 277.997C615.498 278.932 616.409 279.207 617.458 279.045C617.973 278.965 618.263 278.715 618.538 278.372L618.607 278.284L618.816 278C619.272 277.375 619.212 276.335 618.818 275.702C612.356 265.338 601.534 257.865 589.923 254.53ZM615.556 251.318C615.083 251.319 614.83 252.045 615.191 252.354C618.281 254.995 621.298 257.922 623.491 261.376C624.556 263.052 625.445 264.839 626.089 266.721C626.79 268.774 627.016 270.902 628.018 272.844C629.698 276.099 634.208 274.286 634.437 271.107C634.783 266.312 630.793 260.917 627.63 257.647C624.421 254.328 620.483 252.038 615.937 251.366L615.619 251.322L615.556 251.318ZM496.872 247.464C495.552 247.129 494.471 248.817 495.508 249.808C501.204 255.257 508.906 257.788 516.575 258.897L516.965 258.953C524.146 259.946 534.591 260.514 540.011 254.663C541.159 253.424 540.801 251.047 538.961 250.662C536.441 250.135 533.854 250.326 531.297 250.64L530.567 250.732L528.754 250.972C525.172 251.438 521.577 251.721 517.962 251.612C510.724 251.392 503.832 249.237 496.872 247.464ZM622.324 230.248C621.566 229.953 620.763 230.998 621.239 231.661C623.42 234.699 626.035 237.357 628.269 240.349C630.511 243.35 632.383 246.503 635.036 249.174C636.459 250.607 638.887 249.152 638.385 247.223C636.485 239.92 629.24 232.934 622.324 230.248ZM508.681 233.448C507.884 233.164 507.325 234.27 507.879 234.827C515.223 242.189 528.443 246.054 538.182 241.812C540.374 240.858 539.034 237.783 537.064 237.66C532.192 237.355 527.299 237.915 522.453 237.168C517.721 236.438 513.184 235.05 508.681 233.448ZM521.045 223.597C519.992 223.157 519.551 224.731 520.324 225.306C524.48 228.391 529.583 229.732 534.673 228.627C536.33 228.267 535.975 225.587 534.274 225.655C529.671 225.835 525.333 225.391 521.045 223.597ZM555.176 207.627C561.477 207.355 567.862 207.287 574.253 207.511L571.417 207.886L569.525 208.132C562.274 209.063 555.012 209.85 547.692 209.812C542.745 209.786 537.804 209.382 532.974 208.401C540.373 208.854 548.078 208.044 555.176 207.627Z" fill="#CC8E5D"/>
<path fill-rule="evenodd" clip-rule="evenodd" d="M480.305 251.76C480.297 251.796 480.309 251.824 480.317 251.863C480.319 251.852 480.321 251.846 480.324 251.832C480.317 251.803 480.311 251.784 480.305 251.76" fill="#4F66AF"/>
<path fill-rule="evenodd" clip-rule="evenodd" d="M480.302 252.134C480.27 252.1 480.225 252.074 480.179 252.04C480.178 252.041 480.177 252.043 480.177 252.044C480.219 252.072 480.26 252.104 480.302 252.134" fill="#4F66AF"/>
<path fill-rule="evenodd" clip-rule="evenodd" d="M669.95 270.693C672.831 268.297 677.364 270.509 676.386 274.456C675.321 278.754 670.722 281.688 666.926 283.451C663.019 285.265 659.215 285.612 654.954 285.41L654.901 285.398V285.398C656.08 290.154 656.747 295.098 657.648 299.882C658.791 305.952 659.916 312.025 661.023 318.101C662.095 323.974 663.451 329.854 664.273 335.756C665.102 341.714 665.898 347.676 666.712 353.635C668.072 363.588 669.167 373.587 670.323 383.568L670.874 388.293C672.031 398.294 672.961 408.306 670.743 418.255C668.665 427.579 663.993 436.274 658.577 444.055C653.272 451.673 647.348 458.997 640.845 465.623C628.302 478.4 612.84 488.629 594.718 490.513C586.915 491.324 578.583 490.407 571.25 487.558L570.763 487.367C563.34 484.421 554.251 479.382 552.326 471.122C551.144 466.056 556.354 462.105 560.917 464.513C563.031 465.629 564.621 466.903 566.356 468.5L566.663 468.785C568.081 470.107 568.627 470.514 570.263 471.549C573.62 473.669 576.136 474.674 579.949 475.639C586.981 477.419 594.571 477.145 601.711 475.053C616.873 470.613 628.641 459.004 638.724 447.362C644.199 441.04 649.397 434.408 653.407 427.038C657.614 419.305 659.561 411.185 659.451 402.382C659.328 392.45 657.967 382.478 657.077 372.592C656.17 362.514 655.332 352.439 654.595 342.346C653.904 332.882 653.845 323.375 653.609 313.882L653.562 312.102C653.423 307.062 653.328 302.021 653.218 296.98C653.109 291.953 652.717 286.863 653.237 281.858C653.274 281.494 653.764 281.402 653.883 281.771C654.187 282.709 654.453 283.662 654.703 284.619C654.742 284.59 654.785 284.564 654.838 284.546C658.178 283.398 661.255 281.105 663.762 278.63C666.155 276.269 667.406 272.808 669.95 270.693ZM487.332 200.121C489.436 191.487 498.876 189.566 505.852 193.73C509.207 195.733 511.893 198.62 515.027 200.914C518.143 203.196 521.586 205.03 525.221 206.325C532.442 208.899 540.06 209.84 547.694 209.879C566.273 209.977 584.477 204.757 603.083 205.357C617.481 205.821 632.758 210.1 643.193 220.542C648.814 226.168 652.433 233.397 654.371 241.07C655.277 244.656 655.952 248.329 656.483 251.994L656.613 252.91C656.91 255.051 657.388 257.319 657.431 259.483C657.47 261.426 656.977 263.46 656.71 265.383C656.146 269.438 649.882 268.971 648.984 265.377C646.941 257.194 647.807 248.752 645.308 240.597C643.093 233.365 638.793 227.04 632.558 222.712C606.256 204.451 572.494 219.696 543.499 218.252C536.412 217.899 529.222 216.795 522.539 214.343C519.093 213.079 515.7 211.537 512.577 209.599C509.715 207.825 507.236 205.596 504.587 203.545L503.418 202.653C501.602 201.281 498.511 199.136 496.676 200.947C495.877 201.736 495.827 203.52 495.841 204.883L495.849 205.498C495.928 211.283 497.099 217.059 494.935 222.646C493.947 225.194 491.208 226.799 488.606 225.354L488.471 225.276C482.966 221.987 475.724 228.581 479.951 234.047L480.082 234.212C482.46 237.114 481.187 242.221 476.926 242.204L476.773 242.201C469.182 241.957 465.806 251.465 472.346 255.626L472.547 255.751C477.857 258.942 473.191 266.601 467.748 263.965C468.209 264.189 467.407 264.185 466.948 264.802C466.507 265.394 466.474 265.907 466.578 266.656C466.894 268.925 468.882 270.839 470.493 272.275C474.152 275.539 478.69 277.795 483.366 279.17C502.099 284.677 521.328 277.976 539.588 273.934C558.625 269.721 580.123 268.036 596.711 280.051C596.908 280.193 596.736 280.511 596.517 280.384C584.611 273.438 570.021 274.042 556.997 276.874C539.919 280.588 522.987 287.514 505.498 289.328C510.4 298.021 512.446 308.285 511.127 318.221C510.218 325.062 507.497 330.993 504.284 337.004L503.671 338.15C500.807 343.545 498.587 348.642 498.547 354.895C498.507 361.108 489.293 362.41 487.736 356.353C484.202 342.598 497.128 331.777 502.407 320.441C506.92 310.75 507.068 299.447 503.432 289.518C499.319 289.846 495.174 289.877 490.987 289.499C487.392 289.174 483.693 288.521 480.088 287.49L478.64 293.568C476.722 301.664 474.945 309.755 474.401 318.166C474.001 324.346 474.016 330.557 474.612 336.723C475.128 342.048 476.22 347.184 477.332 352.384C478.289 353.651 478.777 355.59 478.506 357.134C484.721 358.933 489.606 363.855 491.387 370.37C491.496 370.767 490.942 370.989 490.735 370.645C486.502 363.591 475.59 360.988 468.682 365.64C462.084 370.081 459.476 379.057 463.202 386.168C465.162 389.907 468.071 392.536 471.822 394.347L472.577 394.703C474.543 395.638 476.347 396.656 477.611 398.531C479.249 400.963 479.302 403.533 479.145 406.31L479.077 407.436C478.972 409.298 478.947 411.214 479.498 413.005L479.624 413.404C479.769 413.851 479.922 414.244 480.188 414.671C480.268 414.798 481.014 415.534 481.257 415.8L481.564 415.893V415.893L481.907 415.907V415.907C482.288 415.913 482.788 415.748 482.624 415.863L482.668 415.837C482.813 415.747 482.946 415.652 483.058 415.567L483.27 415.401C483.768 414.681 484.391 414.087 485.155 413.634L485.886 413.309V413.309C487.783 411.304 491.031 412.361 492.389 414.361C493.366 415.8 493.891 417.262 493.933 418.704C494.086 418.458 494.425 418.324 494.641 418.6L495.929 420.247C500.854 426.567 505.694 432.926 511.292 438.688C514.376 441.863 517.694 444.847 521.162 447.596C524.124 449.943 529.742 452.203 529.825 456.474C529.85 457.86 528.868 458.841 527.666 459.311C523.756 460.838 518.929 455.627 516.108 453.09L515.877 452.885C512.424 449.848 509.273 446.514 506.365 442.95C500.718 436.026 495.998 428.058 493.922 419.295C493.823 420.824 493.168 422.322 491.893 423.734C490.195 425.614 487.873 426.931 485.394 427.473C479.776 428.699 474.294 426.668 470.956 421.973C468.135 418.004 467.308 412.766 467.676 407.975L467.722 407.4C467.774 406.631 467.84 405.221 468.039 404.621L466.271 403.646V403.646C464.104 402.488 462.096 400.97 460.294 399.301C453.051 392.596 449.423 381.706 452.745 372.181C454.823 366.223 459.183 361.041 464.762 358.35C463.832 356.19 463.522 353.625 463.173 351.355L463.114 350.979C462.52 347.256 462.024 343.486 461.837 339.718C461.487 332.682 461.926 325.58 463.035 318.627C464.835 307.332 468.554 295.356 475.359 285.886C470.175 283.817 465.404 280.824 461.724 276.671C457.877 272.331 455.428 266.12 458.41 260.615C459.17 259.212 460.159 258.033 461.296 257.097C459.329 253.365 458.695 248.956 459.915 244.744C461.372 239.708 465.32 235.782 470.087 233.952C468.934 229.178 469.884 224.046 473.424 220.071C476.934 216.128 482.382 214.696 487.423 215.602C487.7 210.526 486.111 205.126 487.332 200.121ZM473.042 378.329C477.666 376.065 483.143 376.43 487.758 378.583L488.071 378.732C493.109 381.187 499.78 386.917 498.173 393.005C497.232 396.565 493.285 397.778 490.226 396.238C487.671 394.951 487.09 392.655 485.809 390.347C484.904 388.715 483.784 387.438 482.468 386.126C479.696 383.36 476.58 381.305 473.041 379.659C472.531 379.422 472.549 378.571 473.042 378.329ZM589.606 255.352C589.173 255.153 589.488 254.473 589.924 254.598C601.535 257.933 612.358 265.405 618.82 275.77C619.214 276.402 619.273 277.443 618.818 278.068L618.608 278.351C618.311 278.74 618.018 279.026 617.46 279.112C616.411 279.275 615.5 279 614.896 278.064C608.53 268.185 600.37 260.298 589.606 255.352ZM667.356 257.372C668.341 255.702 670.95 256.041 671.467 257.914L671.542 258.078C671.822 258.716 671.695 258.847 671.172 258.485C672.466 259.556 673.05 261.149 672.653 262.861C670.508 272.107 660.053 278.703 650.944 277.786C650.149 277.706 650.042 276.727 650.763 276.435C654.268 275.015 657.381 272.708 659.885 269.875C662.318 267.121 663.343 263.969 664.654 260.642C665.145 259.393 665.909 258.494 666.985 258.004C667.128 257.807 667.252 257.597 667.356 257.372ZM615.558 251.385L615.621 251.389C620.301 251.999 624.348 254.318 627.632 257.714C630.795 260.984 634.785 266.38 634.439 271.174C634.209 274.353 629.699 276.167 628.02 272.912C627.018 270.97 626.792 268.842 626.09 266.788C625.447 264.906 624.557 263.119 623.492 261.443C621.3 257.989 618.283 255.063 615.193 252.422C614.831 252.113 615.084 251.387 615.558 251.385V251.385ZM495.51 249.875C494.473 248.884 495.554 247.196 496.873 247.532C503.833 249.304 510.726 251.459 517.964 251.679C521.579 251.788 525.174 251.505 528.756 251.039L530.569 250.8C533.362 250.437 536.203 250.152 538.963 250.729C540.803 251.114 541.16 253.491 540.013 254.73C534.592 260.582 524.148 260.013 516.967 259.02C509.169 257.941 501.302 255.416 495.51 249.875ZM621.241 231.728C620.765 231.065 621.567 230.02 622.326 230.315C629.242 233.002 636.487 239.987 638.387 247.29C638.889 249.22 636.461 250.674 635.037 249.241C632.384 246.571 630.513 243.417 628.271 240.416C626.037 237.424 623.422 234.767 621.241 231.728ZM507.881 234.894C507.326 234.338 507.886 233.231 508.683 233.515C513.186 235.118 517.723 236.505 522.454 237.235C527.3 237.982 532.193 237.422 537.065 237.727C539.036 237.85 540.376 240.925 538.184 241.88C528.444 246.121 515.224 242.257 507.881 234.894ZM520.326 225.373C519.552 224.799 519.994 223.224 521.047 223.664C525.335 225.458 529.672 225.902 534.276 225.722C535.976 225.655 536.332 228.334 534.674 228.694C529.585 229.799 524.482 228.459 520.326 225.373Z" fill="black"/>
<path fill-rule="evenodd" clip-rule="evenodd" d="M598.521 433.432C594.579 431.82 591.063 429.132 588.494 425.701C587.6 424.508 587.37 423.249 587.558 422.098C587.77 420.803 588.537 419.631 589.582 418.845C590.63 418.056 591.94 417.668 593.207 417.867C594.307 418.041 595.402 418.644 596.268 419.895L596.449 420.146C597.977 422.217 599.968 423.916 602.238 425.013C604.425 426.07 606.873 426.564 609.406 426.28C614.23 425.739 617.558 423.132 621.095 419.591C621.533 419.143 621.972 418.682 622.413 418.214C622.691 417.789 623.078 417.516 623.506 417.373C623.982 417.214 624.521 417.224 625.014 417.396C625.489 417.563 625.914 417.878 626.199 418.297C626.469 418.695 626.622 419.187 626.572 419.752C626.245 423.425 624.323 426.701 621.594 429.273C618.564 432.129 614.548 434.103 610.768 434.794C606.604 435.554 602.361 435.003 598.521 433.432V433.432ZM612.781 376.78C617.208 379.478 623.952 385.764 619.181 392.438C613.567 398.321 605.497 391.563 601.52 388.507C597.832 386.138 593.681 392.22 597.102 394.986C625.841 416.309 637.544 377.506 615.024 373.615C612.544 373.187 611.621 375.946 612.781 376.78ZM561.268 351.961C561.763 345.884 571.016 344.511 571.932 350.526C572.751 355.914 571.777 360.862 569.347 365.71C567.026 370.341 561.202 368.175 560.765 363.955C560.179 358.299 560.961 355.741 561.268 351.961ZM631.7 349.329C632.991 347.64 634.855 346.488 637.086 347.142C644.056 349.186 641.993 359.086 639.54 363.903C638.207 366.52 633.906 367.18 631.965 364.874C628.801 361.113 627.29 353.607 631.32 349.908C631.429 349.717 631.551 349.524 631.7 349.329ZM569.283 325.375L570.384 325.183C573.792 324.596 578.028 324.033 580.436 326.775C581.713 328.229 582.151 330.93 580.431 332.32C577.407 334.764 574.067 333.813 570.445 334.017C567.46 334.186 564.591 334.678 561.715 335.497C555.407 337.295 550.265 340.583 544.875 344.194C544.168 344.667 543.447 343.762 543.785 343.101C546.9 337.011 552.93 332.011 558.969 328.965C562.192 327.339 565.718 325.991 569.283 325.375ZM625.367 322.692L626.21 322.866C635.381 324.792 647.296 328.633 651.632 337.65C651.796 338.925 651.621 339.198 651.479 339.376L651.431 339.436C651.314 339.588 651.22 339.798 650.668 339.971C650.515 339.934 650.36 339.895 650.204 339.854C648.213 339.331 646.638 338.61 645.114 337.863L643.461 337.046C641.543 336.104 639.608 335.195 637.558 334.524C633.182 333.092 628.68 332.082 624.108 331.541C623.118 331.424 622.164 331.088 621.411 330.514C620.697 329.969 620.152 329.215 619.904 328.213C619.582 326.917 619.676 325.936 620.372 324.767C620.896 323.889 621.644 323.281 622.503 322.932C623.379 322.576 624.376 322.493 625.367 322.692Z" fill="black"/>
<path fill-rule="evenodd" clip-rule="evenodd" d="M659.921 376.797C652.793 384.153 640.902 386.255 631.43 382.299C607.109 372.109 619.044 340.401 637.815 331.899C640.16 331.317 643.291 329.933 646.147 329.621C646.405 329.494 646.967 329.861 647.648 329.515C668.336 331.843 673.02 363.978 659.921 376.797M581.446 378.615C573.449 389.207 558.596 392.464 546.467 387.527C522.505 378.064 531.03 349.945 547.439 338.932C582.093 325.939 596.37 359.086 581.446 378.615M529.504 355.088C529.482 355.077 529.46 355.072 529.437 355.061C529.564 355.005 529.69 354.95 529.816 354.893C529.775 355 529.731 355.107 529.691 355.214C529.629 355.171 529.574 355.121 529.504 355.088M676.44 343.755C674.484 343.757 671.659 344.076 670.038 345.432C666.057 331.96 651.331 319.481 638.508 328.56C628.412 331.799 620.917 338.993 616.653 348.563C608.982 343.99 596.913 345.93 590.253 351.963C585.907 337.553 575.184 332.498 562.418 331.743C548.484 329.448 534.583 342.975 530.24 353.832C526.637 353.419 521.254 352.267 517.862 354.489C495.865 348.699 457.402 345.484 452.926 348.687C449.737 349.908 447.982 357.433 452.434 357.843C456.314 357.295 451.986 352.327 455.897 351.789C476.736 350.514 496.961 354.73 517.577 356.509C519.416 358.987 525.362 359.821 528.536 358.828C523.523 377.248 534.3 389.792 550.461 393.56C575.485 399.333 597.279 376.953 590.754 353.65C598.339 349.883 607.059 350.053 615.317 352.047C601.473 402.849 683.28 400.638 670.549 347.174C679.048 351.412 680.9 344.612 676.44 343.755" fill="black"/>
<path fill-rule="evenodd" clip-rule="evenodd" d="M560.662 439.694C565.183 427.406 575.035 418.381 586.373 415.088C594.698 412.676 603.434 412.76 611.918 413.728C616.363 414.231 621.131 414.644 625.319 416.568C628.895 418.212 631.808 421.315 633.997 424.957C636.603 429.273 638.374 434.211 639.616 439.272C639.792 439.992 639.958 440.717 640.112 441.445C639.567 445.263 638.414 448.511 635.372 450.909C632.403 453.25 628.862 454.206 625.334 454.544C624.988 454.35 624.653 454.151 624.347 453.948C618.851 450.281 614.988 441.625 608.047 442.79C601.852 443.831 597.767 452.892 594.08 458.205C582.255 459.797 570.444 455.655 560.831 447.783C560.344 445.091 560.318 442.376 560.662 439.694M648.158 430.444C647.214 427.356 646.026 424.364 644.616 421.546C639.956 412.227 632.796 404.799 624.292 400.549C604.176 390.509 578.131 397.553 561.865 413.977C556.308 419.592 550.688 427.845 548.983 436.726C548.476 436.842 547.997 437.149 547.603 437.581C535.868 428.972 523.783 420.688 514.331 408.76C507.467 400.094 502.696 389.84 499.779 378.575C499.54 377.648 498.255 377.782 498.293 378.808C498.304 379.048 498.315 379.287 498.326 379.528C498.204 379.086 497.625 379.313 497.58 379.741C495.994 393.422 494.012 407.926 495.814 421.68C496.892 429.888 500.092 435.899 504.371 442.39C508.955 449.347 514.147 455.82 519.455 462.027C522.823 465.967 526.341 470.511 530.467 473.401C535.266 476.759 540.711 479.314 545.833 481.906C551.044 484.551 556.334 486.995 561.723 489.114C572.497 493.366 583.634 496.308 594.966 497.602C604.04 498.634 614.41 499.76 623.11 495.796C629.778 492.759 635.163 487.263 639.436 480.649C644.088 473.445 647.768 465.238 649.805 456.583C651.923 447.592 648.601 431.894 648.158 430.444" fill="#CC8E5D"/>
</svg>
